<?xml version="1.0" encoding="UTF-8" standalone="no"?>
<!-- Created with Inkscape (http://www.inkscape.org/) -->

<svg
   xmlns:osb="http://www.openswatchbook.org/uri/2009/osb"
   xmlns:dc="http://purl.org/dc/elements/1.1/"
   xmlns:cc="http://creativecommons.org/ns#"
   xmlns:rdf="http://www.w3.org/1999/02/22-rdf-syntax-ns#"
   xmlns:svg="http://www.w3.org/2000/svg"
   xmlns="http://www.w3.org/2000/svg"
   xmlns:sodipodi="http://sodipodi.sourceforge.net/DTD/sodipodi-0.dtd"
   xmlns:inkscape="http://www.inkscape.org/namespaces/inkscape"
   width="732"
   height="412"
   id="svg3395"
   version="1.1"
   inkscape:version="0.48.4 r9939"
   sodipodi:docname="Icon.svg">
  <defs
     id="defs3397">
    <linearGradient
       id="linearGradient4163"
       osb:paint="solid">
      <stop
         style="stop-color:#000000;stop-opacity:1;"
         offset="0"
         id="stop4165" />
    </linearGradient>
  </defs>
  <sodipodi:namedview
     id="base"
     pagecolor="#000000"
     bordercolor="#666666"
     borderopacity="1.0"
     inkscape:pageopacity="0"
     inkscape:pageshadow="2"
     inkscape:zoom="0.98994949"
     inkscape:cx="424.72525"
     inkscape:cy="251.06375"
     inkscape:document-units="px"
     inkscape:current-layer="layer1"
     showgrid="false"
     inkscape:snap-global="false"
     inkscape:window-width="1920"
     inkscape:window-height="1056"
     inkscape:window-x="0"
     inkscape:window-y="24"
     inkscape:window-maximized="1">
    <inkscape:grid
       type="xygrid"
       id="grid3565"
       empspacing="5"
       visible="true"
       enabled="true"
       snapvisiblegridlinesonly="true" />
  </sodipodi:namedview>
  <metadata
     id="metadata3400">
    <rdf:RDF>
      <cc:Work
         rdf:about="">
        <dc:format>image/svg+xml</dc:format>
        <dc:type
           rdf:resource="http://purl.org/dc/dcmitype/StillImage" />
        <dc:title />
      </cc:Work>
    </rdf:RDF>
  </metadata>
  <g
     inkscape:label="Layer 1"
     inkscape:groupmode="layer"
     id="layer1"
     transform="translate(0,-640.36218)">
    <rect
       y="640.2193"
       x="-1.494751e-07"
       height="425.71429"
       width="747.14288"
       id="rect3381"
       style="fill:#000000;fill-opacity:1" />
    <g
       transform="matrix(1.5493928,0,0,1.5493928,-95.960615,-341.05276)"
       id="g3529">
      <rect
         y="704.53699"
         x="354.71414"
         height="16.487705"
         width="82.43853"
         id="rect3251"
         style="fill:#b28d25;fill-opacity:1" />
      <rect
         y="718.52472"
         x="420.66498"
         height="19.492781"
         width="16.487705"
         id="rect3255"
         style="fill:#b28d25;fill-opacity:1" />
      <rect
         y="737.51239"
         x="437.15268"
         height="32.97541"
         width="49.463116"
         id="rect3257"
         style="fill:#b28d25;fill-opacity:1" />
      <rect
         y="754.00012"
         x="404.17725"
         height="16.487705"
         width="35.248253"
         id="rect3259"
         style="fill:#b28d25;fill-opacity:1" />
      <rect
         y="768.46747"
         x="420.66498"
         height="51.483421"
         width="49.463116"
         id="rect3261"
         style="fill:#b28d25;fill-opacity:1" />
      <rect
         y="819.95093"
         x="453.64038"
         height="16.487705"
         width="16.487705"
         id="rect3263"
         style="fill:#b28d25;fill-opacity:1" />
      <rect
         y="803.4632"
         x="404.17725"
         height="32.97541"
         width="17.045084"
         id="rect3265"
         style="fill:#b28d25;fill-opacity:1" />
      <rect
         y="803.4632"
         x="387.68954"
         height="16.487705"
         width="19.7707"
         id="rect3267"
         style="fill:#b28d25;fill-opacity:1" />
      <rect
         y="836.4386"
         x="420.66498"
         height="16.487705"
         width="16.487705"
         id="rect3269"
         style="fill:#b28d25;fill-opacity:1" />
      <rect
         y="818.87952"
         x="453.64038"
         height="17.559134"
         width="16.487705"
         id="rect3271"
         style="fill:#b28d25;fill-opacity:1" />
      <rect
         y="836.4386"
         x="470.12808"
         height="16.487705"
         width="16.487705"
         id="rect3273"
         style="fill:#b28d25;fill-opacity:1" />
      <rect
         y="852.92633"
         x="486.61578"
         height="16.487705"
         width="16.487705"
         id="rect3275"
         style="fill:#b28d25;fill-opacity:1" />
      <rect
         y="869.414"
         x="503.10349"
         height="16.487705"
         width="16.487705"
         id="rect3277"
         style="fill:#b28d25;fill-opacity:1" />
      <rect
         style="fill:#d6b864;fill-opacity:1"
         id="rect3279"
         width="16.487705"
         height="20.275778"
         x="404.27036"
         y="721.02472" />
      <rect
         y="737.51239"
         x="404.15762"
         height="16.487705"
         width="32.97541"
         id="rect3281"
         style="fill:#d6b864;fill-opacity:1" />
      <rect
         y="737.51239"
         x="486.59616"
         height="16.487705"
         width="16.487705"
         id="rect3283"
         style="fill:#d6b864;fill-opacity:1" />
      <rect
         y="754.00012"
         x="503.08386"
         height="32.97541"
         width="16.487705"
         id="rect3285"
         style="fill:#d6b864;fill-opacity:1" />
      <rect
         y="770.48779"
         x="371.18222"
         height="16.487705"
         width="32.97541"
         id="rect3287"
         style="fill:#d6b864;fill-opacity:1" />
      <rect
         y="754.00012"
         x="354.69452"
         height="16.487705"
         width="16.487705"
         id="rect3289"
         style="fill:#d6b864;fill-opacity:1" />
      <rect
         y="721.02472"
         x="387.66992"
         height="32.97541"
         width="18.809134"
         id="rect3291"
         style="fill:#d6b864;fill-opacity:1" />
      <rect
         y="721.02472"
         x="437.13306"
         height="16.740244"
         width="32.97541"
         id="rect3293"
         style="fill:#b0a177;fill-opacity:1" />
      <rect
         y="704.53699"
         x="470.10846"
         height="16.487705"
         width="16.487705"
         id="rect3295"
         style="fill:#b0a177;fill-opacity:1" />
      <rect
         y="786.97552"
         x="470.10846"
         height="16.487705"
         width="16.487705"
         id="rect3297"
         style="fill:#b0a177;fill-opacity:1" />
      <rect
         y="803.4632"
         x="486.59616"
         height="16.487705"
         width="16.487705"
         id="rect3299"
         style="fill:#b0a177;fill-opacity:1" />
      <rect
         y="786.97552"
         x="404.15762"
         height="16.866512"
         width="16.740244"
         id="rect3301"
         style="fill:#b0a177;fill-opacity:1" />
      <rect
         style="fill:#b28d25;fill-opacity:1"
         id="rect3052"
         width="16.487705"
         height="16.487705"
         x="420.66498"
         y="836.4386" />
    </g>
    <path
       inkscape:connector-curvature="0"
       id="path3385"
       d="m 535.96677,817.23146 -18.01928,4.1052 16.93813,-9.10284 z"
       style="fill:#000000;fill-opacity:1;stroke:#000000;stroke-width:1.00429308px;stroke-linecap:butt;stroke-linejoin:miter;stroke-opacity:1" />
    <rect
       style="fill:#b28d25;fill-opacity:1"
       id="rect3052-3"
       width="50.545933"
       height="29.523407"
       x="453.62692"
       y="725.23047" />
    <g
       id="g4335"
       transform="matrix(0.18677878,0,0,0.18677878,-3.7907743,886.34521)">
      <path
         id="path3047"
         style="fill:#fd8f00;fill-opacity:0.30136988;fill-rule:nonzero;stroke:none"
         d="m 163.28626,877.36306 c -2.38603,5.82245 -5.93976,11.27435 -10.66384,15.99843 -19.0723,19.07229 -49.99212,19.07229 -69.067071,0 -19.07229,-19.06962 -19.07229,-49.99211 0,-69.05906 19.074951,-19.07762 49.994771,-19.07762 69.067071,0 4.70275,4.69742 8.24315,10.12265 10.62652,15.90512 4.7854,10.36259 4.37484,27.09417 0.0373,37.15551 m 100.3308,-0.29859 c 0.69315,-0.75447 1.35162,-1.54093 1.96215,-2.36471 l 3.54837,1.4956 2.2261,-3.85764 -2.98588,-2.25807 c 1.3783,-2.86858 2.2874,-5.99841 2.64197,-9.29887 l 3.83365,-0.47721 0,-4.45482 -3.76967,-0.47188 c -0.26393,-3.29246 -1.08771,-6.4303 -2.37537,-9.3122 l 3.15117,-2.38337 -2.22608,-3.85765 -3.59638,1.51427 c -1.82885,-2.61531 -4.08692,-4.9107 -6.67024,-6.7902 l 1.58625,-3.76701 -3.85232,-2.22874 -2.44202,3.22581 c -2.80725,-1.31165 -5.85978,-2.18075 -9.0696,-2.51666 l -0.52786,-4.19623 0,0 0,-0.002 -4.45216,0 -0.5172,4.15623 c -1.27699,0.10664 -2.53,0.30659 -3.75367,0.57852 l 0,-76.09187 -32.55672,6.26235 0,-16.80622 -8.57906,-2.50334 0,20.95979 -7.29674,1.40229 0,-38.64044 -8.13651,1.25033 0,38.95503 -8.54708,1.64223 0,44.41492 -11.58093,-11.58094 -9.98403,4.24154 -1.72754,-10.64518 -23.73773,-6.35832 -6.52627,8.66438 -6.81953,-8.35513 -23.737721,6.36099 -1.31698,10.76782 -10.08267,-3.82832 -17.3794,17.3794 4.24421,9.98402 -10.64785,1.72488 -6.36098,23.74038 8.66704,6.52628 -8.35513,6.81686 6.35832,23.74039 10.77048,1.31698 -3.82832,10.08267 17.37674,17.3794 9.98669,-4.24421 1.72754,10.64518 23.737721,6.36365 6.52628,-8.66971 6.81952,8.35513 23.73773,-6.35566 1.31965,-10.77048 10.08,3.82566 10.73316,-10.7305 0,22.62335 120.6241,0.12797 0,-25.86516 -28.2192,-26.8409 z"
         inkscape:connector-curvature="0" />
      <path
         id="path3049"
         style="fill:#fd8f00;fill-opacity:0.30136988;fill-rule:nonzero;stroke:none"
         d="m 191.02905,710.29153 c 0,6.05173 -4.50014,8.4511 -8.50975,8.4511 -4.00694,0 -11.01308,-3.65237 -11.01308,-9.7041 0,-6.05173 7.00614,-11.27435 11.01308,-11.27435 4.00961,0 8.50975,6.47295 8.50975,12.52735"
         inkscape:connector-curvature="0" />
      <path
         id="path3051"
         style="fill:#fd8f00;fill-opacity:0.30136988;fill-rule:nonzero;stroke:none"
         d="m 179.98237,697.54344 c 0,7.41937 -6.69689,13.43644 -13.56974,13.43644 -6.87285,0 -13.56974,-3.77233 -13.56974,-11.1917 0,-7.42204 6.69689,-12.31408 13.56974,-12.31408 6.87285,0 13.56974,2.6473 13.56974,10.06934"
         inkscape:connector-curvature="0" />
      <path
         id="path3053"
         style="fill:#fd8f00;fill-opacity:0.30136988;fill-rule:nonzero;stroke:none"
         d="m 208.13519,730.49578 c -3.40176,0.87977 -6.79287,-0.83977 -7.56866,-3.84698 -0.7758,-3.00187 0.97841,-7.60065 4.38284,-8.48042 3.40443,-0.87977 5.71849,2.66596 6.49428,5.6705 0.77579,3.00454 0.096,5.77447 -3.30846,6.6569"
         inkscape:connector-curvature="0" />
      <path
         id="path3055"
         style="fill:#fd8f00;fill-opacity:0.30136988;fill-rule:nonzero;stroke:none"
         d="m 209.81581,697.41733 c 0,2.07411 -1.68222,3.75634 -3.75634,3.75634 -2.07678,0 -3.75633,-2.93523 -3.75633,-5.00935 0,-2.07411 1.67955,-3.75634 3.75633,-3.75634 2.07412,0 3.75634,2.93523 3.75634,5.00935"
         inkscape:connector-curvature="0" />
      <path
         id="path3057"
         style="fill:#fd8f00;fill-opacity:0.30136988;fill-rule:nonzero;stroke:none"
         d="m 142.65759,685.88785 c 0,1.22101 -2.4447,2.21009 -3.91365,2.21009 -1.46894,0 -2.66062,-0.98908 -2.66062,-2.21009 0,-1.22101 1.19168,-3.46308 2.66062,-3.46308 1.46895,0 3.91365,2.24207 3.91365,3.46308"
         inkscape:connector-curvature="0" />
      <path
         id="path3059"
         style="fill:#fd8f00;fill-opacity:0.30136988;fill-rule:nonzero;stroke:none"
         d="m 158.31238,858.82902 c 0,-6.71823 -1.56759,-13.04722 -4.47082,-18.61908 -6.73155,-12.92724 -20.16534,-21.76224 -35.75055,-21.76224 -6.87818,0 -13.3458,1.62357 -19.010971,4.64944 -12.92725,6.73421 -21.76491,20.144 -21.76491,35.73188 0,15.59054 8.83766,29.00032 21.76491,35.73454 5.665171,3.02853 12.132791,4.64944 19.010971,4.64944 15.61987,0 29.07765,-8.87497 35.79321,-21.8502 2.87657,-5.55322 4.42816,-11.84753 4.42816,-18.53376"
         inkscape:connector-curvature="0" />
    </g>
    <g
       transform="matrix(1.5493928,0,0,1.5493928,-191.43313,-331.66202)"
       id="g3359">
      <g
         transform="matrix(16.180304,0,0,16.180304,324.28997,650.16195)"
         id="g3278">
        <rect
           y="10.79452"
           x="-10"
           height="4.2054796"
           width="1"
           id="rect3256"
           style="fill:#1f35ae;fill-opacity:1" />
        <rect
           ry="0"
           y="10.760274"
           x="-7"
           height="4.2397261"
           width="1"
           id="rect3258"
           style="fill:#1f35ae;fill-opacity:1" />
        <rect
           y="5"
           x="-10"
           height="6"
           width="4"
           id="rect3260"
           style="fill:#1f35ae;fill-opacity:1" />
        <rect
           y="6"
           x="-11"
           height="1"
           width="2"
           id="rect3262"
           style="fill:#1f35ae;fill-opacity:1" />
        <rect
           y="1.5582192"
           x="-9"
           height="2.4417808"
           width="3"
           id="rect3272"
           style="fill:#808fe2;fill-opacity:1" />
        <rect
           y="1"
           x="-9"
           height="2"
           width="1"
           id="rect3264"
           style="fill:#1f35ae;fill-opacity:1" />
        <rect
           y="0"
           x="-7"
           height="2"
           width="2"
           id="rect3266"
           style="fill:#1f35ae;fill-opacity:1" />
        <rect
           y="1"
           x="-8.5273972"
           height="1"
           width="2.089041"
           id="rect3268"
           style="fill:#1f35ae;fill-opacity:1" />
        <rect
           y="4"
           x="-8"
           height="2"
           width="1"
           id="rect3274"
           style="fill:#808fe2;fill-opacity:1" />
        <rect
           y="3.8630137"
           x="-9"
           height="1.1369863"
           width="2"
           id="rect3276"
           style="fill:#808fe2;fill-opacity:1" />
      </g>
      <g
         transform="matrix(16.157245,0,0,16.325603,146.23595,811.90686)"
         id="g3123">
        <rect
           y="-3"
           x="0"
           height="2"
           width="1.0507812"
           id="rect3107"
           style="fill:#808fe2;fill-opacity:1" />
        <rect
           y="-2.0331457"
           x="1"
           height="1.0331457"
           width="2"
           id="rect3109"
           style="fill:#808fe2;fill-opacity:1" />
        <rect
           y="-1"
           x="5"
           height="1"
           width="2"
           id="rect3111"
           style="fill:#808fe2;fill-opacity:1" />
        <rect
           y="-3"
           x="1"
           height="1"
           width="3"
           id="rect3113"
           style="fill:#947660;fill-opacity:1" />
        <rect
           y="-2.0435889"
           x="3"
           height="1.0435888"
           width="2"
           id="rect3115"
           style="fill:#947660;fill-opacity:1" />
        <rect
           y="-1"
           x="2"
           height="1"
           width="1"
           id="rect3117"
           style="fill:#947660;fill-opacity:1" />
        <rect
           y="-3"
           x="4"
           height="1"
           width="5"
           id="rect3119"
           style="fill:#9397ad;fill-opacity:1" />
        <rect
           y="-2"
           x="5"
           height="1"
           width="3"
           id="rect3121"
           style="fill:#4f546e;fill-opacity:1" />
      </g>
    </g>
    <path
       style="fill:#000000;fill-opacity:1;stroke:#000000;stroke-width:1.19588399px;stroke-linecap:butt;stroke-linejoin:miter;stroke-opacity:1"
       d="m 147.94125,760.31033 3.31043,-1.4258 2.30291,1.74264 1.58325,2.37633 2.73471,1.26738 1.87112,-0.79211 1.15145,-1.10896 -1.29539,3.64371 -1.72718,0.95053 -3.1665,0.63368 -2.44684,-0.63368 -3.1665,-1.4258 -1.00752,-1.58422 -0.28787,-1.58422 z"
       id="path3124"
       inkscape:connector-curvature="0"
       sodipodi:nodetypes="ccccccccccccccc" />
    <path
       sodipodi:nodetypes="ccccccccccccccc"
       inkscape:connector-curvature="0"
       id="path3894"
       d="m 147.79731,760.31033 -3.31042,-1.4258 -2.30292,1.74264 -1.58325,2.37633 -2.73471,1.26738 -1.87111,-0.79211 -1.15146,-1.10896 1.29539,3.64371 1.72718,0.95053 3.16651,0.63368 2.44683,-0.63368 3.16651,-1.4258 1.00752,-1.58422 0.28786,-1.58422 z"
       style="fill:#000000;fill-opacity:1;stroke:#000000;stroke-width:1.19588399px;stroke-linecap:butt;stroke-linejoin:miter;stroke-opacity:1" />
  </g>
</svg>
